<svg id="visual" viewBox="0 0 900 600" width="900" height="600" xmlns="http://www.w3.org/2000/svg" xmlns:xlink="http://www.w3.org/1999/xlink" version="1.1"><rect x="0" y="0" width="900" height="600" fill="#e6e6e6"></rect><g transform="translate(410.53042378741196 276.346906129573)"><path d="M172.5 -186.6C234.1 -154 301.7 -109.5 327.1 -45.8C352.4 17.9 335.6 101 289.4 154.1C243.2 207.2 167.8 230.5 96.1 250.9C24.4 271.3 -43.6 288.8 -111 276.6C-178.5 264.4 -245.6 222.4 -257.8 166C-270 109.5 -227.3 38.5 -195.6 -15.9C-163.8 -70.2 -143 -107.9 -112.2 -146C-81.4 -184 -40.7 -222.5 7.4 -231.3C55.5 -240.1 111 -219.3 172.5 -186.6" fill="#FFFFFF"></path></g></svg>