<svg id="visual" viewBox="0 0 960 540" width="960" height="540" xmlns="http://www.w3.org/2000/svg" xmlns:xlink="http://www.w3.org/1999/xlink" version="1.1"><rect x="0" y="0" width="960" height="540" fill="#001220"></rect><path d="M0 416L22.8 405.7C45.7 395.3 91.3 374.7 137 369.2C182.7 363.7 228.3 373.3 274 386.5C319.7 399.7 365.3 416.3 411.2 411.2C457 406 503 379 548.8 376.7C594.7 374.3 640.3 396.7 686 399.5C731.7 402.3 777.3 385.7 823 380.7C868.7 375.7 914.3 382.3 937.2 385.7L960 389L960 541L937.2 541C914.3 541 868.7 541 823 541C777.3 541 731.7 541 686 541C640.3 541 594.7 541 548.8 541C503 541 457 541 411.2 541C365.3 541 319.7 541 274 541C228.3 541 182.7 541 137 541C91.3 541 45.7 541 22.8 541L0 541Z" fill="#ffffff"></path><path d="M0 439L22.8 439.7C45.7 440.3 91.3 441.7 137 443.3C182.7 445 228.3 447 274 447.7C319.7 448.3 365.3 447.7 411.2 440.8C457 434 503 421 548.8 414.3C594.7 407.7 640.3 407.3 686 412C731.7 416.7 777.3 426.3 823 429.7C868.7 433 914.3 430 937.2 428.5L960 427L960 541L937.2 541C914.3 541 868.7 541 823 541C777.3 541 731.7 541 686 541C640.3 541 594.7 541 548.8 541C503 541 457 541 411.2 541C365.3 541 319.7 541 274 541C228.3 541 182.7 541 137 541C91.3 541 45.7 541 22.8 541L0 541Z" fill="#f2f2f2"></path><path d="M0 422L22.8 425.5C45.7 429 91.3 436 137 444.8C182.7 453.7 228.3 464.3 274 465.2C319.7 466 365.3 457 411.2 456.8C457 456.7 503 465.3 548.8 463.8C594.7 462.3 640.3 450.7 686 451.8C731.7 453 777.3 467 823 466.7C868.7 466.3 914.3 451.7 937.2 444.3L960 437L960 541L937.2 541C914.3 541 868.7 541 823 541C777.3 541 731.7 541 686 541C640.3 541 594.7 541 548.8 541C503 541 457 541 411.2 541C365.3 541 319.7 541 274 541C228.3 541 182.7 541 137 541C91.3 541 45.7 541 22.8 541L0 541Z" fill="#e5e5e5"></path><path d="M0 475L22.8 471.8C45.7 468.7 91.3 462.3 137 460.7C182.7 459 228.3 462 274 463.2C319.7 464.3 365.3 463.7 411.2 469.3C457 475 503 487 548.8 488.3C594.7 489.7 640.3 480.3 686 480.2C731.7 480 777.3 489 823 493.5C868.7 498 914.3 498 937.2 498L960 498L960 541L937.2 541C914.3 541 868.7 541 823 541C777.3 541 731.7 541 686 541C640.3 541 594.7 541 548.8 541C503 541 457 541 411.2 541C365.3 541 319.7 541 274 541C228.3 541 182.7 541 137 541C91.3 541 45.7 541 22.8 541L0 541Z" fill="#d8d8d8"></path><path d="M0 484L22.8 484.5C45.7 485 91.3 486 137 487C182.7 488 228.3 489 274 489.7C319.7 490.3 365.3 490.7 411.2 490C457 489.3 503 487.7 548.8 490.2C594.7 492.7 640.3 499.3 686 502.2C731.7 505 777.3 504 823 500.5C868.7 497 914.3 491 937.2 488L960 485L960 541L937.2 541C914.3 541 868.7 541 823 541C777.3 541 731.7 541 686 541C640.3 541 594.7 541 548.8 541C503 541 457 541 411.2 541C365.3 541 319.7 541 274 541C228.3 541 182.7 541 137 541C91.3 541 45.7 541 22.8 541L0 541Z" fill="#cccccc"></path></svg>